<svg width="10" height="14" viewBox="0 0 10 14" fill="none" xmlns="http://www.w3.org/2000/svg">
<path d="M3.39495 9.00699C3.39495 8.50827 3.51275 8.06733 3.74835 7.68417C3.98395 7.29492 4.26864 6.98474 4.6024 6.75362C4.93617 6.51643 5.26994 6.28835 5.60371 6.0694C5.93748 5.85045 6.22216 5.59805 6.45776 5.3122C6.69336 5.02634 6.81116 4.70096 6.81116 4.33604C6.81116 3.95288 6.64428 3.62445 6.31051 3.35076C5.97674 3.07707 5.54154 2.94023 5.00489 2.94023C4.44206 2.94023 3.95777 3.06491 3.55202 3.31427C3.1528 3.56363 2.89103 3.81299 2.76668 4.06235L2.58998 4.42727L0.0769043 3.4055C0.103082 3.32035 0.145621 3.2048 0.204521 3.05883C0.263422 2.91286 0.423761 2.66046 0.68554 2.30162C0.947319 1.94279 1.24836 1.62348 1.58868 1.34371C1.93553 1.05786 2.41982 0.802418 3.04155 0.577385C3.66327 0.34627 4.35044 0.230713 5.10306 0.230713C6.52321 0.230713 7.68158 0.598672 8.57817 1.33459C9.47476 2.06443 9.92306 2.94023 9.92306 3.962C9.92306 4.59453 9.79871 5.16015 9.55002 5.65887C9.30788 6.15151 9.00683 6.54988 8.64689 6.85398C8.29348 7.15807 7.94008 7.44393 7.58668 7.71153C7.23328 7.97914 6.93224 8.2954 6.68355 8.66032C6.43486 9.01916 6.31051 9.41448 6.31051 9.8463H3.59128C3.46039 9.53612 3.39495 9.25635 3.39495 9.00699ZM3.66 13.3495C3.34587 13.0697 3.1888 12.7444 3.1888 12.3734C3.1888 11.9963 3.34587 11.6679 3.66 11.3881C3.98068 11.1083 4.36026 10.9684 4.79874 10.9684C5.24376 10.9684 5.62334 11.1083 5.93748 11.3881C6.25161 11.6679 6.40868 11.9963 6.40868 12.3734C6.40868 12.7444 6.25161 13.0697 5.93748 13.3495C5.62334 13.6293 5.24376 13.7692 4.79874 13.7692C4.36026 13.7692 3.98068 13.6293 3.66 13.3495Z" fill="#7D8790"/>
</svg>
