<svg width="12" height="12" viewBox="0 0 12 12" fill="none" xmlns="http://www.w3.org/2000/svg">
<path d="M8.43247 3.8854L6.84593 2.29902L2.67862 6.46591C2.63631 6.50821 2.61516 6.55897 2.61516 6.6182V7.90422C2.61516 8.02267 2.70824 8.11574 2.8267 8.11574H4.11285C4.16785 8.11574 4.22285 8.09459 4.26093 8.05229L8.43247 3.8854ZM9.68477 2.63321C9.84977 2.46823 9.84977 2.20172 9.68477 2.03673L8.69478 1.04683C8.52978 0.88185 8.26324 0.88185 8.09824 1.04683L7.26901 1.87598L8.85554 3.46236L9.68477 2.63321Z" fill="#F2994A"/>
<path d="M1.76901 9.94877H10.2305C10.6959 9.94877 11.0767 10.0475 11.0767 10.5128C11.0767 10.9781 10.6959 11.0769 10.2305 11.0769H1.76901C1.30362 11.0769 0.922852 10.9781 0.922852 10.5128C0.922852 10.0475 1.30362 9.94877 1.76901 9.94877Z" fill="#F2994A"/>
</svg>
