<svg width="12" height="12" viewBox="0 0 12 12" fill="none" xmlns="http://www.w3.org/2000/svg">
<path d="M9.85209 2.24552L8.16462 1.8561C7.98127 1.81392 7.79305 1.90965 7.71842 2.08164L6.93959 3.89891C6.87144 4.05792 6.91687 4.24451 7.05154 4.35323L8.03482 5.15802C7.45069 6.40252 6.4301 7.43772 5.15963 8.0332L4.35484 7.04992C4.24451 6.91525 4.05954 6.86982 3.90053 6.93797L2.08325 7.7168C1.90964 7.79306 1.81391 7.98127 1.8561 8.16462L2.24551 9.85209C2.28607 10.0273 2.44184 10.1539 2.62519 10.1539C6.78057 10.1539 10.1539 6.78707 10.1539 2.6252C10.1539 2.44347 10.0289 2.28608 9.85209 2.24552Z" fill="#398BFF"/>
</svg>
