<svg width="12" height="12" viewBox="0 0 12 12" fill="none" xmlns="http://www.w3.org/2000/svg">
<path d="M6.00091 3.3967C4.56023 3.3967 3.39817 4.55902 3.39817 6.00002C3.39817 7.44102 4.56023 8.60334 6.00091 8.60334C7.44159 8.60334 8.60364 7.44102 8.60364 6.00002C8.60364 4.55902 7.44159 3.3967 6.00091 3.3967ZM6.00091 7.69252C5.0699 7.69252 4.30879 6.9335 4.30879 6.00002C4.30879 5.06654 5.06764 4.30752 6.00091 4.30752C6.93418 4.30752 7.69303 5.06654 7.69303 6.00002C7.69303 6.9335 6.93191 7.69252 6.00091 7.69252ZM9.31719 3.29021C9.31719 3.6278 9.04536 3.89743 8.71011 3.89743C8.37259 3.89743 8.10303 3.62554 8.10303 3.29021C8.10303 2.95488 8.37486 2.683 8.71011 2.683C9.04536 2.683 9.31719 2.95488 9.31719 3.29021ZM11.041 3.90649C11.0025 3.09309 10.8168 2.37259 10.221 1.77897C9.62752 1.18535 8.90718 0.999564 8.09397 0.958781C7.25584 0.911201 4.74371 0.911201 3.90558 0.958781C3.09463 0.997298 2.37429 1.18309 1.77854 1.77671C1.18279 2.37033 0.999303 3.09083 0.958529 3.90422C0.910959 4.74254 0.910959 7.25523 0.958529 8.09355C0.997038 8.90694 1.18279 9.62744 1.77854 10.2211C2.37429 10.8147 3.09237 11.0005 3.90558 11.0413C4.74371 11.0888 7.25584 11.0888 8.09397 11.0413C8.90718 11.0027 9.62752 10.8169 10.221 10.2211C10.8145 9.62744 11.0002 8.90694 11.041 8.09355C11.0886 7.25523 11.0886 4.74481 11.041 3.90649ZM9.95825 8.99304C9.78156 9.43712 9.43951 9.77925 8.99326 9.95824C8.32502 10.2233 6.73937 10.1622 6.00091 10.1622C5.26245 10.1622 3.67453 10.2211 3.00855 9.95824C2.56457 9.78151 2.22252 9.43939 2.04357 8.99304C1.77854 8.32465 1.8397 6.73865 1.8397 6.00002C1.8397 5.26139 1.7808 3.67312 2.04357 3.007C2.22026 2.56291 2.5623 2.22079 3.00855 2.0418C3.67679 1.77671 5.26245 1.83788 6.00091 1.83788C6.73937 1.83788 8.32729 1.77897 8.99326 2.0418C9.43725 2.21852 9.77929 2.56065 9.95825 3.007C10.2233 3.67538 10.1621 5.26139 10.1621 6.00002C10.1621 6.73865 10.2233 8.32692 9.95825 8.99304Z" fill="#E1306C"/>
</svg>
