<svg width="16" height="16" viewBox="0 0 16 16" fill="none" xmlns="http://www.w3.org/2000/svg">
<path d="M0.25 0.297852H3.49414C4.28548 0.297852 4.94076 0.546712 5.45996 1.04443C5.98275 1.53857 6.24414 2.15267 6.24414 2.88672C6.24414 3.61719 5.98454 4.23128 5.46533 4.729C4.94613 5.22314 4.28906 5.47021 3.49414 5.47021H1.9043V8H0.25V0.297852ZM3.44043 1.78564H1.9043V3.98242H3.44043C3.76986 3.98242 4.04378 3.87679 4.26221 3.66553C4.48421 3.45426 4.59521 3.19466 4.59521 2.88672C4.59521 2.57878 4.48421 2.31917 4.26221 2.10791C4.04378 1.89307 3.76986 1.78564 3.44043 1.78564Z" fill="white"/>
</svg>
